<?xml version="1.0" encoding="UTF-8" standalone="no"?>
<!DOCTYPE svg PUBLIC "-//W3C//DTD SVG 1.1//EN"
 "http://www.w3.org/Graphics/SVG/1.1/DTD/svg11.dtd">
<!-- Generated by graphviz version 2.38.0 (20140413.2041)
 -->
<!-- Title: Task Development Diagram Pages: 1 -->
<svg width="416pt" height="586pt"
 viewBox="0.00 0.00 416.00 586.00" xmlns="http://www.w3.org/2000/svg" xmlns:xlink="http://www.w3.org/1999/xlink">
<g id="graph0" class="graph" transform="scale(1 1) rotate(0) translate(4 582)">
<title>Task Development Diagram</title>
<polygon fill="cornsilk" stroke="none" points="-4,4 -4,-582 412,-582 412,4 -4,4"/>
<text text-anchor="middle" x="204" y="-6.8" font-family="Consolas" font-size="9.00">任务处理流程图</text>
<g id="clust1" class="cluster"><title>cluster0</title>
<path fill="cornsilk" stroke="cadetblue" d="M20,-26C20,-26 198,-26 198,-26 204,-26 210,-32 210,-38 210,-38 210,-558 210,-558 210,-564 204,-570 198,-570 198,-570 20,-570 20,-570 14,-570 8,-564 8,-558 8,-558 8,-38 8,-38 8,-32 14,-26 20,-26"/>
</g>
<!-- start -->
<g id="node1" class="node"><title>start</title>
<path fill="#b2df8a" stroke="#b2df8a" d="M87,-562C87,-562 57,-562 57,-562 51,-562 45,-556 45,-550 45,-550 45,-538 45,-538 45,-532 51,-526 57,-526 57,-526 87,-526 87,-526 93,-526 99,-532 99,-538 99,-538 99,-550 99,-550 99,-556 93,-562 87,-562"/>
<text text-anchor="middle" x="72" y="-541.8" font-family="Consolas" font-size="9.00">+</text>
</g>
<!-- new -->
<g id="node2" class="node"><title>new</title>
<path fill="#b2df8a" stroke="#b2df8a" d="M87,-480C87,-480 57,-480 57,-480 51,-480 45,-474 45,-468 45,-468 45,-456 45,-456 45,-450 51,-444 57,-444 57,-444 87,-444 87,-444 93,-444 99,-450 99,-456 99,-456 99,-468 99,-468 99,-474 93,-480 87,-480"/>
<text text-anchor="middle" x="72" y="-459.8" font-family="Consolas" font-size="9.00">new</text>
</g>
<!-- start&#45;&gt;new -->
<g id="edge1" class="edge"><title>start&#45;&gt;new</title>
<path fill="none" stroke="cadetblue" d="M72,-525.641C72,-515.297 72,-501.941 72,-490.221"/>
<polygon fill="cadetblue" stroke="cadetblue" points="75.5001,-490.05 72,-480.05 68.5001,-490.05 75.5001,-490.05"/>
<text text-anchor="middle" x="106.5" y="-500.8" font-family="Consolas" font-size="9.00">anyone.submit</text>
</g>
<!-- triaged -->
<g id="node3" class="node"><title>triaged</title>
<path fill="#b2df8a" stroke="#b2df8a" d="M87,-398C87,-398 57,-398 57,-398 51,-398 45,-392 45,-386 45,-386 45,-374 45,-374 45,-368 51,-362 57,-362 57,-362 87,-362 87,-362 93,-362 99,-368 99,-374 99,-374 99,-386 99,-386 99,-392 93,-398 87,-398"/>
<text text-anchor="middle" x="72" y="-377.8" font-family="Consolas" font-size="9.00">triaged</text>
</g>
<!-- new&#45;&gt;triaged -->
<g id="edge2" class="edge"><title>new&#45;&gt;triaged</title>
<path fill="none" stroke="cadetblue" d="M72,-443.641C72,-433.297 72,-419.941 72,-408.221"/>
<polygon fill="cadetblue" stroke="cadetblue" points="75.5001,-408.05 72,-398.05 68.5001,-408.05 75.5001,-408.05"/>
<text text-anchor="middle" x="130" y="-418.8" font-family="Consolas" font-size="9.00">busines&#45;analyst.triage</text>
</g>
<!-- triaged&#45;&gt;triaged -->
<g id="edge3" class="edge"><title>triaged&#45;&gt;triaged</title>
<path fill="none" stroke="cadetblue" d="M99.2408,-387.493C109.024,-387.654 117,-385.156 117,-380 117,-376.858 114.038,-374.703 109.51,-373.536"/>
<polygon fill="cadetblue" stroke="cadetblue" points="109.54,-370.021 99.2408,-372.507 108.842,-376.986 109.54,-370.021"/>
<text text-anchor="middle" x="159.5" y="-377.8" font-family="Consolas" font-size="9.00">developer.assign</text>
</g>
<!-- in process -->
<g id="node5" class="node"><title>in process</title>
<path fill="#b2df8a" stroke="#b2df8a" d="M112.5,-316C112.5,-316 67.5,-316 67.5,-316 61.5,-316 55.5,-310 55.5,-304 55.5,-304 55.5,-292 55.5,-292 55.5,-286 61.5,-280 67.5,-280 67.5,-280 112.5,-280 112.5,-280 118.5,-280 124.5,-286 124.5,-292 124.5,-292 124.5,-304 124.5,-304 124.5,-310 118.5,-316 112.5,-316"/>
<text text-anchor="middle" x="90" y="-295.8" font-family="Consolas" font-size="9.00">in process</text>
</g>
<!-- triaged&#45;&gt;in process -->
<g id="edge4" class="edge"><title>triaged&#45;&gt;in process</title>
<path fill="none" stroke="cadetblue" d="M75.9057,-361.641C78.2569,-351.192 81.2997,-337.668 83.956,-325.862"/>
<polygon fill="cadetblue" stroke="cadetblue" points="87.3832,-326.575 86.1637,-316.05 80.5539,-325.038 87.3832,-326.575"/>
<text text-anchor="middle" x="120" y="-336.8" font-family="Consolas" font-size="9.00">developer.work</text>
</g>
<!-- rejected -->
<g id="node4" class="node"><title>rejected</title>
<path fill="#fb9a99" stroke="#fb9a99" d="M63.5,-70C63.5,-70 28.5,-70 28.5,-70 22.5,-70 16.5,-64 16.5,-58 16.5,-58 16.5,-46 16.5,-46 16.5,-40 22.5,-34 28.5,-34 28.5,-34 63.5,-34 63.5,-34 69.5,-34 75.5,-40 75.5,-46 75.5,-46 75.5,-58 75.5,-58 75.5,-64 69.5,-70 63.5,-70"/>
<text text-anchor="middle" x="46" y="-49.8" font-family="Consolas" font-size="9.00">rejected</text>
</g>
<!-- rejected&#45;&gt;in process -->
<g id="edge9" class="edge"><title>rejected&#45;&gt;in process</title>
<path fill="none" stroke="cadetblue" d="M44.514,-70.0176C42.7666,-94.5485 40.9257,-141.167 48,-180 53.8551,-212.14 67.471,-247.179 77.6224,-270.452"/>
<polygon fill="cadetblue" stroke="cadetblue" points="74.4599,-271.954 81.7282,-279.662 80.8534,-269.103 74.4599,-271.954"/>
<text text-anchor="middle" x="85" y="-172.8" font-family="Consolas" font-size="9.00">developer.work</text>
</g>
<!-- ready to test -->
<g id="node6" class="node"><title>ready to test</title>
<path fill="#b2df8a" stroke="#b2df8a" d="M151.5,-234C151.5,-234 90.5,-234 90.5,-234 84.5,-234 78.5,-228 78.5,-222 78.5,-222 78.5,-210 78.5,-210 78.5,-204 84.5,-198 90.5,-198 90.5,-198 151.5,-198 151.5,-198 157.5,-198 163.5,-204 163.5,-210 163.5,-210 163.5,-222 163.5,-222 163.5,-228 157.5,-234 151.5,-234"/>
<text text-anchor="middle" x="121" y="-213.8" font-family="Consolas" font-size="9.00">ready to test</text>
</g>
<!-- in process&#45;&gt;ready to test -->
<g id="edge5" class="edge"><title>in process&#45;&gt;ready to test</title>
<path fill="none" stroke="cadetblue" d="M96.7265,-279.641C100.817,-269.086 106.122,-255.395 110.729,-243.505"/>
<polygon fill="cadetblue" stroke="cadetblue" points="114.043,-244.639 114.393,-234.05 107.516,-242.11 114.043,-244.639"/>
<text text-anchor="middle" x="153" y="-254.8" font-family="Consolas" font-size="9.00">developer.resolve</text>
</g>
<!-- blocked -->
<g id="node9" class="node"><title>blocked</title>
<path fill="#b2df8a" stroke="#b2df8a" d="M260,-480C260,-480 230,-480 230,-480 224,-480 218,-474 218,-468 218,-468 218,-456 218,-456 218,-450 224,-444 230,-444 230,-444 260,-444 260,-444 266,-444 272,-450 272,-456 272,-456 272,-468 272,-468 272,-474 266,-480 260,-480"/>
<text text-anchor="middle" x="245" y="-459.8" font-family="Consolas" font-size="9.00">blocked</text>
</g>
<!-- in process&#45;&gt;blocked -->
<g id="edge10" class="edge"><title>in process&#45;&gt;blocked</title>
<path fill="none" stroke="cadetblue" d="M124.623,-307.457C152.661,-316.217 190.717,-332.834 211,-362 227.437,-385.636 210.374,-399.243 221,-426 222.224,-429.081 223.759,-432.161 225.458,-435.144"/>
<polygon fill="cadetblue" stroke="cadetblue" points="222.583,-437.146 230.9,-443.71 228.492,-433.392 222.583,-437.146"/>
<text text-anchor="middle" x="240.5" y="-377.8" font-family="Consolas" font-size="9.00">blocking</text>
</g>
<!-- information request -->
<g id="node10" class="node"><title>information request</title>
<path fill="#b2df8a" stroke="#b2df8a" d="M394,-480C394,-480 302,-480 302,-480 296,-480 290,-474 290,-468 290,-468 290,-456 290,-456 290,-450 296,-444 302,-444 302,-444 394,-444 394,-444 400,-444 406,-450 406,-456 406,-456 406,-468 406,-468 406,-474 400,-480 394,-480"/>
<text text-anchor="middle" x="348" y="-459.8" font-family="Consolas" font-size="9.00">information request</text>
</g>
<!-- in process&#45;&gt;information request -->
<g id="edge12" class="edge"><title>in process&#45;&gt;information request</title>
<path fill="none" stroke="cadetblue" d="M124.767,-304.911C162.616,-312.74 223.423,-329.524 266,-362 273.438,-367.673 306.303,-408.377 328.101,-435.795"/>
<polygon fill="cadetblue" stroke="cadetblue" points="325.513,-438.164 334.47,-443.823 330.997,-433.814 325.513,-438.164"/>
<text text-anchor="middle" x="352.5" y="-377.8" font-family="Consolas" font-size="9.00">need more information</text>
</g>
<!-- testing -->
<g id="node7" class="node"><title>testing</title>
<path fill="#b2df8a" stroke="#b2df8a" d="M146,-152C146,-152 116,-152 116,-152 110,-152 104,-146 104,-140 104,-140 104,-128 104,-128 104,-122 110,-116 116,-116 116,-116 146,-116 146,-116 152,-116 158,-122 158,-128 158,-128 158,-140 158,-140 158,-146 152,-152 146,-152"/>
<text text-anchor="middle" x="131" y="-131.8" font-family="Consolas" font-size="9.00">testing</text>
</g>
<!-- ready to test&#45;&gt;testing -->
<g id="edge6" class="edge"><title>ready to test&#45;&gt;testing</title>
<path fill="none" stroke="cadetblue" d="M123.17,-197.641C124.463,-187.297 126.132,-173.941 127.597,-162.221"/>
<polygon fill="cadetblue" stroke="cadetblue" points="131.101,-162.407 128.869,-152.05 124.155,-161.539 131.101,-162.407"/>
<text text-anchor="middle" x="156" y="-172.8" font-family="Consolas" font-size="9.00">tester.work</text>
</g>
<!-- testing&#45;&gt;rejected -->
<g id="edge8" class="edge"><title>testing&#45;&gt;rejected</title>
<path fill="none" stroke="cadetblue" d="M103.948,-125.832C88.7394,-120.496 70.5473,-111.716 59,-98 54.7381,-92.9378 51.8721,-86.5469 49.9452,-80.1836"/>
<polygon fill="cadetblue" stroke="cadetblue" points="53.3385,-79.3238 47.6247,-70.4017 46.5275,-80.9396 53.3385,-79.3238"/>
<text text-anchor="middle" x="93.5" y="-90.8" font-family="Consolas" font-size="9.00">tester.reject</text>
</g>
<!-- closed -->
<g id="node8" class="node"><title>closed</title>
<path fill="#b2df8a" stroke="#b2df8a" d="M148,-70C148,-70 118,-70 118,-70 112,-70 106,-64 106,-58 106,-58 106,-46 106,-46 106,-40 112,-34 118,-34 118,-34 148,-34 148,-34 154,-34 160,-40 160,-46 160,-46 160,-58 160,-58 160,-64 154,-70 148,-70"/>
<text text-anchor="middle" x="133" y="-49.8" font-family="Consolas" font-size="9.00">closed</text>
</g>
<!-- testing&#45;&gt;closed -->
<g id="edge7" class="edge"><title>testing&#45;&gt;closed</title>
<path fill="none" stroke="cadetblue" d="M131.434,-115.641C131.693,-105.297 132.026,-91.941 132.319,-80.2206"/>
<polygon fill="cadetblue" stroke="cadetblue" points="135.823,-80.1345 132.574,-70.0501 128.825,-79.9595 135.823,-80.1345"/>
<text text-anchor="middle" x="167.5" y="-90.8" font-family="Consolas" font-size="9.00">tester.verify</text>
</g>
<!-- blocked&#45;&gt;triaged -->
<g id="edge11" class="edge"><title>blocked&#45;&gt;triaged</title>
<path fill="none" stroke="cadetblue" d="M228.703,-443.993C218.854,-434.574 205.604,-423.324 192,-416 166.085,-402.048 133.948,-393.055 109.455,-387.684"/>
<polygon fill="cadetblue" stroke="cadetblue" points="109.971,-384.216 99.4668,-385.599 108.541,-391.068 109.971,-384.216"/>
<text text-anchor="middle" x="228.5" y="-418.8" font-family="Consolas" font-size="9.00">resolved</text>
</g>
<!-- information request&#45;&gt;triaged -->
<g id="edge13" class="edge"><title>information request&#45;&gt;triaged</title>
<path fill="none" stroke="cadetblue" d="M317.497,-443.935C299.496,-434.496 275.996,-423.246 254,-416 205.324,-399.965 146.765,-390.334 109.464,-385.346"/>
<polygon fill="cadetblue" stroke="cadetblue" points="109.435,-381.813 99.069,-384.003 108.538,-388.756 109.435,-381.813"/>
<text text-anchor="middle" x="332" y="-418.8" font-family="Consolas" font-size="9.00">information provided</text>
</g>
</g>
</svg>
